<mxfile host="app.diagrams.net" modified="2023-11-14T22:51:00.801Z" agent="Mozilla/5.0 (Windows NT 10.0; Win64; x64) AppleWebKit/537.36 (KHTML, like Gecko) Chrome/119.0.0.0 Safari/537.36" etag="DKbT_pwak0FkgMcFxtEB" version="22.1.1" type="github">
  <diagram name="PÃ¡gina-1" id="PVuyG4UoEhKT5akWkjdU">
    <mxGraphModel dx="1434" dy="746" grid="1" gridSize="10" guides="1" tooltips="1" connect="1" arrows="1" fold="1" page="1" pageScale="1" pageWidth="827" pageHeight="1169" math="0" shadow="0">
      <root>
        <mxCell id="0" />
        <mxCell id="1" parent="0" />
        <mxCell id="hbOxM70JGLfHWjQWwYoh-5" value="" style="edgeStyle=orthogonalEdgeStyle;rounded=0;orthogonalLoop=1;jettySize=auto;html=1;" edge="1" parent="1" source="hbOxM70JGLfHWjQWwYoh-1" target="hbOxM70JGLfHWjQWwYoh-4">
          <mxGeometry relative="1" as="geometry" />
        </mxCell>
        <mxCell id="hbOxM70JGLfHWjQWwYoh-1" value="Inicio" style="ellipse;whiteSpace=wrap;html=1;aspect=fixed;" vertex="1" parent="1">
          <mxGeometry x="380" y="190" width="80" height="80" as="geometry" />
        </mxCell>
        <mxCell id="hbOxM70JGLfHWjQWwYoh-7" value="" style="edgeStyle=orthogonalEdgeStyle;rounded=0;orthogonalLoop=1;jettySize=auto;html=1;" edge="1" parent="1" source="hbOxM70JGLfHWjQWwYoh-4">
          <mxGeometry relative="1" as="geometry">
            <mxPoint x="420" y="410" as="targetPoint" />
          </mxGeometry>
        </mxCell>
        <mxCell id="hbOxM70JGLfHWjQWwYoh-4" value="while" style="ellipse;whiteSpace=wrap;html=1;aspect=fixed;" vertex="1" parent="1">
          <mxGeometry x="380" y="300" width="80" height="80" as="geometry" />
        </mxCell>
        <mxCell id="hbOxM70JGLfHWjQWwYoh-9" value="" style="edgeStyle=orthogonalEdgeStyle;rounded=0;orthogonalLoop=1;jettySize=auto;html=1;entryX=0.5;entryY=0;entryDx=0;entryDy=0;" edge="1" parent="1" source="hbOxM70JGLfHWjQWwYoh-6" target="hbOxM70JGLfHWjQWwYoh-36">
          <mxGeometry relative="1" as="geometry">
            <mxPoint x="420" y="510" as="targetPoint" />
          </mxGeometry>
        </mxCell>
        <mxCell id="hbOxM70JGLfHWjQWwYoh-6" value="leer" style="ellipse;whiteSpace=wrap;html=1;aspect=fixed;" vertex="1" parent="1">
          <mxGeometry x="380" y="410" width="80" height="80" as="geometry" />
        </mxCell>
        <mxCell id="hbOxM70JGLfHWjQWwYoh-11" value="" style="edgeStyle=orthogonalEdgeStyle;rounded=0;orthogonalLoop=1;jettySize=auto;html=1;entryX=1;entryY=0.5;entryDx=0;entryDy=0;" edge="1" parent="1" target="hbOxM70JGLfHWjQWwYoh-47">
          <mxGeometry relative="1" as="geometry">
            <mxPoint x="380" y="550" as="sourcePoint" />
            <mxPoint x="290" y="550" as="targetPoint" />
          </mxGeometry>
        </mxCell>
        <mxCell id="hbOxM70JGLfHWjQWwYoh-13" value="" style="edgeStyle=orthogonalEdgeStyle;rounded=0;orthogonalLoop=1;jettySize=auto;html=1;entryX=0;entryY=0.5;entryDx=0;entryDy=0;" edge="1" parent="1" target="hbOxM70JGLfHWjQWwYoh-46">
          <mxGeometry relative="1" as="geometry">
            <mxPoint x="460" y="550" as="sourcePoint" />
            <mxPoint x="540" y="550" as="targetPoint" />
          </mxGeometry>
        </mxCell>
        <mxCell id="hbOxM70JGLfHWjQWwYoh-15" value="" style="edgeStyle=orthogonalEdgeStyle;rounded=0;orthogonalLoop=1;jettySize=auto;html=1;exitX=0.5;exitY=1;exitDx=0;exitDy=0;" edge="1" parent="1" source="hbOxM70JGLfHWjQWwYoh-36">
          <mxGeometry relative="1" as="geometry">
            <mxPoint x="420" y="590" as="sourcePoint" />
            <mxPoint x="420" y="670" as="targetPoint" />
          </mxGeometry>
        </mxCell>
        <mxCell id="hbOxM70JGLfHWjQWwYoh-31" value="" style="edgeStyle=orthogonalEdgeStyle;rounded=0;orthogonalLoop=1;jettySize=auto;html=1;" edge="1" parent="1" target="hbOxM70JGLfHWjQWwYoh-30">
          <mxGeometry relative="1" as="geometry">
            <mxPoint x="580" y="590" as="sourcePoint" />
          </mxGeometry>
        </mxCell>
        <mxCell id="hbOxM70JGLfHWjQWwYoh-52" style="edgeStyle=orthogonalEdgeStyle;rounded=0;orthogonalLoop=1;jettySize=auto;html=1;exitX=0.5;exitY=1;exitDx=0;exitDy=0;entryX=0;entryY=0.5;entryDx=0;entryDy=0;" edge="1" parent="1" source="hbOxM70JGLfHWjQWwYoh-26" target="hbOxM70JGLfHWjQWwYoh-49">
          <mxGeometry relative="1" as="geometry" />
        </mxCell>
        <mxCell id="hbOxM70JGLfHWjQWwYoh-26" value="procesar()" style="ellipse;whiteSpace=wrap;html=1;aspect=fixed;" vertex="1" parent="1">
          <mxGeometry x="210" y="670" width="80" height="80" as="geometry" />
        </mxCell>
        <mxCell id="hbOxM70JGLfHWjQWwYoh-50" value="" style="edgeStyle=orthogonalEdgeStyle;rounded=0;orthogonalLoop=1;jettySize=auto;html=1;" edge="1" parent="1" source="hbOxM70JGLfHWjQWwYoh-28" target="hbOxM70JGLfHWjQWwYoh-49">
          <mxGeometry relative="1" as="geometry" />
        </mxCell>
        <mxCell id="hbOxM70JGLfHWjQWwYoh-28" value="reiniciar_conta" style="ellipse;whiteSpace=wrap;html=1;aspect=fixed;" vertex="1" parent="1">
          <mxGeometry x="380" y="800" width="80" height="80" as="geometry" />
        </mxCell>
        <mxCell id="hbOxM70JGLfHWjQWwYoh-33" value="" style="edgeStyle=orthogonalEdgeStyle;rounded=0;orthogonalLoop=1;jettySize=auto;html=1;" edge="1" parent="1" source="hbOxM70JGLfHWjQWwYoh-30" target="hbOxM70JGLfHWjQWwYoh-32">
          <mxGeometry relative="1" as="geometry" />
        </mxCell>
        <mxCell id="hbOxM70JGLfHWjQWwYoh-30" value="procesar()" style="ellipse;whiteSpace=wrap;html=1;aspect=fixed;" vertex="1" parent="1">
          <mxGeometry x="540" y="670" width="80" height="80" as="geometry" />
        </mxCell>
        <mxCell id="hbOxM70JGLfHWjQWwYoh-51" style="edgeStyle=orthogonalEdgeStyle;rounded=0;orthogonalLoop=1;jettySize=auto;html=1;exitX=0.5;exitY=1;exitDx=0;exitDy=0;entryX=1;entryY=0.5;entryDx=0;entryDy=0;" edge="1" parent="1" source="hbOxM70JGLfHWjQWwYoh-32" target="hbOxM70JGLfHWjQWwYoh-49">
          <mxGeometry relative="1" as="geometry" />
        </mxCell>
        <mxCell id="hbOxM70JGLfHWjQWwYoh-32" value="incrementar" style="ellipse;whiteSpace=wrap;html=1;aspect=fixed;" vertex="1" parent="1">
          <mxGeometry x="540" y="800" width="80" height="80" as="geometry" />
        </mxCell>
        <mxCell id="hbOxM70JGLfHWjQWwYoh-36" value="IF- ELSE" style="shape=hexagon;perimeter=hexagonPerimeter2;whiteSpace=wrap;html=1;fixedSize=1;" vertex="1" parent="1">
          <mxGeometry x="370" y="517.5" width="100" height="65" as="geometry" />
        </mxCell>
        <mxCell id="hbOxM70JGLfHWjQWwYoh-43" value="" style="endArrow=classic;html=1;rounded=0;exitX=0.5;exitY=1;exitDx=0;exitDy=0;entryX=0.5;entryY=0;entryDx=0;entryDy=0;" edge="1" parent="1" target="hbOxM70JGLfHWjQWwYoh-26">
          <mxGeometry width="50" height="50" relative="1" as="geometry">
            <mxPoint x="250" y="590" as="sourcePoint" />
            <mxPoint x="250" y="660" as="targetPoint" />
          </mxGeometry>
        </mxCell>
        <mxCell id="hbOxM70JGLfHWjQWwYoh-44" value="" style="endArrow=classic;html=1;rounded=0;exitX=0.5;exitY=1;exitDx=0;exitDy=0;entryX=0.5;entryY=0;entryDx=0;entryDy=0;" edge="1" parent="1" target="hbOxM70JGLfHWjQWwYoh-28">
          <mxGeometry width="50" height="50" relative="1" as="geometry">
            <mxPoint x="420" y="750" as="sourcePoint" />
            <mxPoint x="440" y="660" as="targetPoint" />
          </mxGeometry>
        </mxCell>
        <mxCell id="hbOxM70JGLfHWjQWwYoh-45" value="ELSE" style="shape=hexagon;perimeter=hexagonPerimeter2;whiteSpace=wrap;html=1;fixedSize=1;" vertex="1" parent="1">
          <mxGeometry x="375" y="670" width="90" height="80" as="geometry" />
        </mxCell>
        <mxCell id="hbOxM70JGLfHWjQWwYoh-46" value="&amp;nbsp;ELSE IF (campo 1=0)" style="shape=hexagon;perimeter=hexagonPerimeter2;whiteSpace=wrap;html=1;fixedSize=1;" vertex="1" parent="1">
          <mxGeometry x="530" y="510" width="100" height="80" as="geometry" />
        </mxCell>
        <mxCell id="hbOxM70JGLfHWjQWwYoh-47" value="IF (campo 1=1)" style="shape=hexagon;perimeter=hexagonPerimeter2;whiteSpace=wrap;html=1;fixedSize=1;" vertex="1" parent="1">
          <mxGeometry x="200" y="510" width="100" height="80" as="geometry" />
        </mxCell>
        <mxCell id="hbOxM70JGLfHWjQWwYoh-49" value="FIN IF" style="rhombus;whiteSpace=wrap;html=1;" vertex="1" parent="1">
          <mxGeometry x="380" y="910" width="80" height="80" as="geometry" />
        </mxCell>
        <mxCell id="hbOxM70JGLfHWjQWwYoh-53" value="THEN" style="text;html=1;strokeColor=none;fillColor=none;align=center;verticalAlign=middle;whiteSpace=wrap;rounded=0;" vertex="1" parent="1">
          <mxGeometry x="190" y="620" width="60" height="30" as="geometry" />
        </mxCell>
        <mxCell id="hbOxM70JGLfHWjQWwYoh-54" value="THEN" style="text;html=1;strokeColor=none;fillColor=none;align=center;verticalAlign=middle;whiteSpace=wrap;rounded=0;" vertex="1" parent="1">
          <mxGeometry x="520" y="610" width="60" height="30" as="geometry" />
        </mxCell>
        <mxCell id="hbOxM70JGLfHWjQWwYoh-55" value="THEN" style="text;html=1;strokeColor=none;fillColor=none;align=center;verticalAlign=middle;whiteSpace=wrap;rounded=0;" vertex="1" parent="1">
          <mxGeometry x="360" y="760" width="60" height="30" as="geometry" />
        </mxCell>
      </root>
    </mxGraphModel>
  </diagram>
</mxfile>
